<svg xmlns="http://www.w3.org/2000/svg" xmlns:svg="http://www.w3.org/2000/svg" xmlns:xlink="http://www.w3.org/1999/xlink" version="1.0" height="710pt" width="1312pt" viewBox="245 47 1320 716" ><defs><style type="text/css">
            @font-face {
                font-family: 'lt_regular';
                src: url('https://app.creately.com/diagram/assets/fonts/lato/lt-regular-webfont.woff2') format('woff2'),
                    url('https://app.creately.com/diagram/assets/fonts/lato/lt-regular-webfont.woff') format('woff');
                font-weight: normal;
                font-style: normal;
            }
            @font-face {
                font-family: 'noto_regular';
                src: url('https://app.creately.com/diagram/assets/fonts/noto/noto-regular.woff') format('woff'),
                     url('https://app.creately.com/diagram/assets/fonts/noto/noto-regular.woff2') format('woff2');
                font-weight: normal;
                font-style: normal;
            }
        p {
            margin: 0;
        }
        </style></defs><defs><style>
            span{ display: inline-block; }
        </style></defs><g id="Isekvf3xHMH"><g transform="translate(400 150)"><rect x="0" y="0" width="100" height="50" fill="rgb(246,140,39)" stroke="#F68C27" stroke-width="2" stroke-linecap="round" stroke-linejoin="round" stroke-dasharray="0 0"/></g><g transform="translate(426.5, 165) rotate(0, 23.5, 10)" width="47" height="20"><text text-decoration="none" x="0" fill="#ffffff" font-size="11pt" font-family="lt_regular"  y="16">MOVIE</text><text text-decoration="none" x="49" fill="#4b4b4b" font-size="10pt" font-family="noto_regular"  y="16"></text></g></g><g id="HsDCxvnlfgg"><g transform="translate(510 50)"><ellipse cx="50" cy="25" rx="50" ry="25" fill="rgb(0,174,181)" stroke="#00aeb5" stroke-width="2" stroke-linecap="round" stroke-linejoin="round" stroke-dasharray="0 0"/></g><g transform="translate(531.5, 65.5) rotate(0, 28.5, 9.5)" width="57" height="19"><text text-decoration="underline" x="0.5" fill="#ffffff" font-size="10pt" font-family="lt_regular"  y="15">Movie_ID</text><text text-decoration="none" x="56.5" fill="#4b4b4b" font-size="10pt" font-family="noto_regular"  y="15"></text></g></g><g id="qTUHNvVWsD8"><g transform="translate(550 100)"><ellipse cx="50" cy="25" rx="50" ry="25" fill="rgb(0,174,181)" stroke="#00aeb5" stroke-width="2" stroke-linecap="round" stroke-linejoin="round" stroke-dasharray="0 0"/></g><g transform="translate(568, 115) rotate(0, 32, 10)" width="64" height="20"><text text-decoration="none" x="0" fill="#ffffff" font-size="11pt" font-family="lt_regular"  y="16">Showtime</text><text text-decoration="none" x="66" fill="#4b4b4b" font-size="10pt" font-family="noto_regular"  y="16"></text></g></g><g id="I3Z4DjkLWer"><g transform="translate(400 50)"><ellipse cx="50" cy="25" rx="50" ry="25" fill="rgb(0,174,181)" stroke="#00aeb5" stroke-width="2" stroke-linecap="round" stroke-linejoin="round" stroke-dasharray="0 0"/></g><g transform="translate(434.5, 65) rotate(0, 15.5, 10)" width="31" height="20"><text text-decoration="none" x="0" fill="#ffffff" font-size="11pt" font-family="lt_regular"  y="16">Date</text><text text-decoration="none" x="31" fill="#4b4b4b" font-size="10pt" font-family="noto_regular"  y="16"></text></g></g><g id="GlBDAEgIIxM"><g transform="translate(290 50)"><ellipse cx="50" cy="25" rx="50" ry="25" fill="rgb(0,174,181)" stroke="#00aeb5" stroke-width="2" stroke-linecap="round" stroke-linejoin="round" stroke-dasharray="0 0"/></g><g transform="translate(312.5, 65) rotate(0, 27.5, 10)" width="55" height="20"><text text-decoration="none" x="0" fill="#ffffff" font-size="11pt" font-family="lt_regular"  y="16">Location</text><text text-decoration="none" x="57" fill="#4b4b4b" font-size="10pt" font-family="noto_regular"  y="16"></text></g></g><g id="9gLNEyfRnce"><g transform="translate(250 100)"><ellipse cx="50" cy="25" rx="50" ry="25" fill="rgb(0,174,181)" stroke="#00aeb5" stroke-width="2" stroke-linecap="round" stroke-linejoin="round" stroke-dasharray="0 0"/></g><g transform="translate(263, 115) rotate(0, 37, 10)" width="74" height="20"><text text-decoration="none" x="0" fill="#ffffff" font-size="11pt" font-family="lt_regular"  y="16">Description</text><text text-decoration="none" x="75" fill="#4b4b4b" font-size="10pt" font-family="noto_regular"  y="16"></text></g></g><g id="MmnrzF7vKuu"><g><path d="M 450,100 L 450,150" fill="none" stroke="#7E7E7E" stroke-width="2" stroke-linecap="round" stroke-linejoin="round"/></g></g><g id="Mfs1Endu5uZ"><g><path d="M 350,125 L 450,150" fill="none" stroke="#7E7E7E" stroke-width="2" stroke-linecap="round" stroke-linejoin="round"/></g></g><g id="rW977ODJfzo"><g><path d="M 380,90 L 450,150" fill="none" stroke="#7E7E7E" stroke-width="2" stroke-linecap="round" stroke-linejoin="round"/></g></g><g id="K8v6XTncFPr"><g><path d="M 520,90 L 450,150" fill="none" stroke="#7E7E7E" stroke-width="2" stroke-linecap="round" stroke-linejoin="round"/></g></g><g id="vrEkbVmIZuq"><g><path d="M 550,125 L 450,150" fill="none" stroke="#7E7E7E" stroke-width="2" stroke-linecap="round" stroke-linejoin="round"/></g></g><g id="20OqVb998O1"><g transform="translate(300 300)"><path d="M 99.99999999999999,25 L 49.99999999999999,50 L 0,25 L 49.99999999999999,0 L 99.99999999999999,25 L 99.99999999999999,25 Z" fill="rgb(240,82,84)" stroke="#f05254" stroke-width="2" stroke-linecap="round" stroke-linejoin="round" stroke-dasharray="0 0"/></g><g transform="translate(328, 315) rotate(0, 22, 10)" width="44" height="20"><text text-decoration="none" x="0" fill="#ffffff" font-size="11pt" font-family="lt_regular"  y="16">checks</text><text text-decoration="none" x="44" fill="#4b4b4b" font-size="10pt" font-family="noto_regular"  y="16"></text></g></g><g id="TBJd3daYnPX"><g transform="translate(400 450)"><rect x="0" y="0" width="100" height="50" fill="rgb(246,140,39)" stroke="#F68C27" stroke-width="2" stroke-linecap="round" stroke-linejoin="round" stroke-dasharray="0 0"/></g><g transform="translate(421.5, 465) rotate(0, 28.5, 10)" width="57" height="20"><text text-decoration="none" x="0" fill="#ffffff" font-size="11pt" font-family="lt_regular"  y="16">CINEMA</text><text text-decoration="none" x="58" fill="#4b4b4b" font-size="10pt" font-family="noto_regular"  y="16"></text></g></g><g id="jB3euwS6n63"><g><path d="M 400,175 L 360,175 Q 350,175 350,185 L 350,300" fill="none" stroke="#A8A8A8" stroke-width="2" stroke-linecap="round" stroke-linejoin="round"/><path d="M 395,169.25 L 395,180.75 Z" fill="none" stroke="#A8A8A8" stroke-width="2" stroke-linecap="round" stroke-linejoin="round"/></g></g><g id="FNJycqP6Nq0"><g transform="translate(840 150)"><rect x="0" y="0" width="119.99999999999997" height="50" fill="rgb(246,140,39)" stroke="#F68C27" stroke-width="2" stroke-linecap="round" stroke-linejoin="round" stroke-dasharray="0 0"/></g><g transform="translate(851.5, 165) rotate(0, 48.5, 10)" width="97" height="20"><text text-decoration="none" x="0" fill="#ffffff" font-size="11pt" font-family="lt_regular"  y="16">RESERVATION</text><text text-decoration="none" x="100" fill="#4b4b4b" font-size="10pt" font-family="noto_regular"  y="16"></text></g></g><g id="J7ALMFL29aW"><g transform="translate(850 50)"><ellipse cx="50" cy="25" rx="50" ry="25" fill="rgb(0,174,181)" stroke="#00aeb5" stroke-width="2" stroke-linecap="round" stroke-linejoin="round" stroke-dasharray="0 0"/></g><g transform="translate(868.5, 65) rotate(0, 31.5, 10)" width="63" height="20"><text text-decoration="underline" x="0" fill="#ffffff" font-size="11pt" font-family="lt_regular"  y="16">Res_Code</text><text text-decoration="none" x="65" fill="#4b4b4b" font-size="10pt" font-family="noto_regular"  y="16"></text></g></g><g id="KOO6m03KWOB"><g transform="translate(740 50)"><ellipse cx="50" cy="25" rx="50" ry="25" fill="rgb(0,174,181)" stroke="#00aeb5" stroke-width="2" stroke-linecap="round" stroke-linejoin="round" stroke-dasharray="0 0"/></g><g transform="translate(771, 65) rotate(0, 19, 10)" width="38" height="20"><text text-decoration="none" x="0" fill="#ffffff" font-size="11pt" font-family="lt_regular"  y="16">Name</text><text text-decoration="none" x="38" fill="#4b4b4b" font-size="10pt" font-family="noto_regular"  y="16"></text></g></g><g id="hGlVXkpGFcd"><g transform="translate(960 50)"><ellipse cx="50" cy="25" rx="50" ry="25" fill="rgb(0,174,181)" stroke="#00aeb5" stroke-width="2" stroke-linecap="round" stroke-linejoin="round" stroke-dasharray="0 0"/></g><g transform="translate(975.5, 65) rotate(0, 34.5, 10)" width="69" height="20"><text text-decoration="none" x="0" fill="#ffffff" font-size="11pt" font-family="lt_regular"  y="16">Cont_Num</text><text text-decoration="none" x="70" fill="#4b4b4b" font-size="10pt" font-family="noto_regular"  y="16"></text></g></g><g id="JZizGfb4uZK"><g transform="translate(1000 100)"><ellipse cx="50" cy="25" rx="50" ry="25" fill="rgb(0,174,181)" stroke="#00aeb5" stroke-width="2" stroke-linecap="round" stroke-linejoin="round" stroke-dasharray="0 0"/></g><g transform="translate(1034.5, 115) rotate(0, 15.5, 10)" width="31" height="20"><text text-decoration="none" x="0" fill="#ffffff" font-size="11pt" font-family="lt_regular"  y="16">Date</text><text text-decoration="none" x="31" fill="#4b4b4b" font-size="10pt" font-family="noto_regular"  y="16"></text></g></g><g id="HgoAHE3gQKn"><g transform="translate(700 100)"><ellipse cx="50" cy="25" rx="50" ry="25" fill="rgb(0,174,181)" stroke="#00aeb5" stroke-width="2" stroke-linecap="round" stroke-linejoin="round" stroke-dasharray="0 0"/></g><g transform="translate(734, 115) rotate(0, 16, 10)" width="32" height="20"><text text-decoration="none" x="0" fill="#ffffff" font-size="11pt" font-family="lt_regular"  y="16">Time</text><text text-decoration="none" x="33" fill="#4b4b4b" font-size="10pt" font-family="noto_regular"  y="16"></text></g></g><g id="aLiyU3vT8gn"><g><path d="M 900,150 L 900,100" fill="none" stroke="#7E7E7E" stroke-width="2" stroke-linecap="round" stroke-linejoin="round"/></g></g><g id="51S4ScTg2nU"><g><path d="M 800,125 L 900,150" fill="none" stroke="#7E7E7E" stroke-width="2" stroke-linecap="round" stroke-linejoin="round"/></g></g><g id="tYumfrqGeqO"><g><path d="M 830,90 L 900,150" fill="none" stroke="#7E7E7E" stroke-width="2" stroke-linecap="round" stroke-linejoin="round"/></g></g><g id="r5PTbhVRLKT"><g><path d="M 970,90 L 900,150" fill="none" stroke="#7E7E7E" stroke-width="2" stroke-linecap="round" stroke-linejoin="round"/></g></g><g id="bXdK8TBHiSE"><g><path d="M 1000,125 L 900,150" fill="none" stroke="#7E7E7E" stroke-width="2" stroke-linecap="round" stroke-linejoin="round"/></g></g><g id="GHEO5hj6fqv"><g transform="translate(850 300)"><path d="M 99.99999999999999,25 L 49.99999999999999,50 L 0,25 L 49.99999999999999,0 L 99.99999999999999,25 L 99.99999999999999,25 Z" fill="rgb(240,82,84)" stroke="#f05254" stroke-width="2" stroke-linecap="round" stroke-linejoin="round" stroke-dasharray="0 0"/></g><g transform="translate(878, 315) rotate(0, 22, 10)" width="44" height="20"><text text-decoration="none" x="0" fill="#ffffff" font-size="11pt" font-family="lt_regular"  y="16">checks</text><text text-decoration="none" x="44" fill="#4b4b4b" font-size="10pt" font-family="noto_regular"  y="16"></text></g></g><g id="DMXu46z8T90"><g transform="translate(1200 150)"><path d="M 99.99999999999999,25 L 49.99999999999999,50 L 0,25 L 49.99999999999999,0 L 99.99999999999999,25 L 99.99999999999999,25 Z" fill="rgb(240,82,84)" stroke="#f05254" stroke-width="2" stroke-linecap="round" stroke-linejoin="round" stroke-dasharray="0 0"/></g><g transform="translate(1222.5, 165) rotate(0, 27.5, 10)" width="55" height="20"><text text-decoration="none" x="0" fill="#ffffff" font-size="11pt" font-family="lt_regular"  y="16">confirms</text><text text-decoration="none" x="56" fill="#4b4b4b" font-size="10pt" font-family="noto_regular"  y="16"></text></g></g><g id="WQECJrVeTsc"><g><path d="M 900,200 L 900,300" fill="none" stroke="#A8A8A8" stroke-width="2" stroke-linecap="round" stroke-linejoin="round"/><path d="M 894.25,205 L 905.75,205 Z" fill="none" stroke="#A8A8A8" stroke-width="2" stroke-linecap="round" stroke-linejoin="round"/></g></g><g id="PuOMKFFUdFz"><g transform="translate(1200 300)"><rect x="0" y="0" width="100" height="50" fill="rgb(246,140,39)" stroke="#F68C27" stroke-width="2" stroke-linecap="round" stroke-linejoin="round" stroke-dasharray="0 0"/></g><g transform="translate(1210, 315) rotate(0, 40, 10)" width="80" height="20"><text text-decoration="none" x="0" fill="#ffffff" font-size="11pt" font-family="lt_regular"  y="16">CUSTOMER</text><text text-decoration="none" x="82" fill="#4b4b4b" font-size="10pt" font-family="noto_regular"  y="16"></text></g></g><g id="eSbKgBGRJxQ"><g><path d="M 960,175 L 1200,175" fill="none" stroke="#7E7E7E" stroke-width="2" stroke-linecap="round" stroke-linejoin="round"/></g></g><g id="w66e1UcZVzw"><g><path d="M 1250,200 L 1250,300" fill="none" stroke="#A8A8A8" stroke-width="2" stroke-linecap="round" stroke-linejoin="round"/><path d="M 1255.75,300 L 1250,290 L 1244.25,300 M 1255.75,290 L 1244.25,290 Z" fill="none" stroke="#A8A8A8" stroke-width="2" stroke-linecap="round" stroke-linejoin="round"/></g></g><g id="i6pHfoHA8AP"><g><path d="M 850,325 L 460,325 Q 450,325 450,335 L 450,450" fill="none" stroke="#A8A8A8" stroke-width="2" stroke-linecap="round" stroke-linejoin="round"/><path d="M 455.75,450 L 450,440 L 444.25,450 M 455.75,440 L 444.25,440 Z" fill="none" stroke="#A8A8A8" stroke-width="2" stroke-linecap="round" stroke-linejoin="round"/></g></g><g id="zkGWgCZgARO"><g transform="translate(1350 300)"><ellipse cx="50" cy="25" rx="50" ry="25" fill="rgb(0,174,181)" stroke="#00aeb5" stroke-width="2" stroke-linecap="round" stroke-linejoin="round" stroke-dasharray="0 0"/></g><g transform="translate(1374.5, 315) rotate(0, 25.5, 10)" width="51" height="20"><text text-decoration="underline" x="0" fill="#ffffff" font-size="11pt" font-family="lt_regular"  y="16">Cust_ID</text><text text-decoration="none" x="51" fill="#4b4b4b" font-size="10pt" font-family="noto_regular"  y="16"></text></g></g><g id="hQH0DFac0bz"><g transform="translate(1050 300)"><ellipse cx="50" cy="25" rx="50" ry="25" fill="rgb(0,174,181)" stroke="#00aeb5" stroke-width="2" stroke-linecap="round" stroke-linejoin="round" stroke-dasharray="0 0"/></g><g transform="translate(1070.5, 315) rotate(0, 29.5, 10)" width="59" height="20"><text text-decoration="none" x="0" fill="#ffffff" font-size="11pt" font-family="lt_regular"  y="16">cust_Age</text><text text-decoration="none" x="59" fill="#4b4b4b" font-size="10pt" font-family="noto_regular"  y="16"></text></g></g><g id="JUEJ19uY5q9"><g transform="translate(1350 360)"><ellipse cx="51.5" cy="25" rx="51.5" ry="25" fill="rgb(0,174,181)" stroke="#00aeb5" stroke-width="2" stroke-linecap="round" stroke-linejoin="round" stroke-dasharray="0 0"/></g><g transform="translate(1360, 375) rotate(0, 41.5, 10)" width="83" height="20"><text text-decoration="none" x="0.5" fill="#ffffff" font-size="11pt" font-family="lt_regular"  y="16">cust_number</text><text text-decoration="none" x="82.5" fill="#4b4b4b" font-size="10pt" font-family="noto_regular"  y="16"></text></g></g><g id="tQ1N0vrSp5K"><g transform="translate(1050 240)"><ellipse cx="50" cy="25" rx="50" ry="25" fill="rgb(0,174,181)" stroke="#00aeb5" stroke-width="2" stroke-linecap="round" stroke-linejoin="round" stroke-dasharray="0 0"/></g><g transform="translate(1063, 255) rotate(0, 37, 10)" width="74" height="20"><text text-decoration="none" x="0" fill="#ffffff" font-size="11pt" font-family="lt_regular"  y="16">Cust_Name</text><text text-decoration="none" x="74" fill="#4b4b4b" font-size="10pt" font-family="noto_regular"  y="16"></text></g></g><g id="9s8bXxYocaj"><g transform="translate(1050 360)"><ellipse cx="50" cy="25" rx="50" ry="25" fill="rgb(0,174,181)" stroke="#00aeb5" stroke-width="2" stroke-linecap="round" stroke-linejoin="round" stroke-dasharray="0 0"/></g><g transform="translate(1064, 375) rotate(0, 36, 10)" width="72" height="20"><text text-decoration="none" x="0" fill="#ffffff" font-size="11pt" font-family="lt_regular"  y="16">cust_lname</text><text text-decoration="none" x="72" fill="#4b4b4b" font-size="10pt" font-family="noto_regular"  y="16"></text></g></g><g id="Zw9LyzLyI0e"><g transform="translate(1350 240)"><ellipse cx="51.5" cy="25" rx="51.5" ry="25" fill="rgb(0,174,181)" stroke="#00aeb5" stroke-width="2" stroke-linecap="round" stroke-linejoin="round" stroke-dasharray="0 0"/></g><g transform="translate(1360, 255) rotate(0, 41.5, 10)" width="83" height="20"><text text-decoration="none" x="1" fill="#ffffff" font-size="11pt" font-family="lt_regular"  y="16">cust_address</text><text text-decoration="none" x="82" fill="#4b4b4b" font-size="10pt" font-family="noto_regular"  y="16"></text></g></g><g id="wKnhQSjirYX"><g><path d="M 1140,280 L 1200,325" fill="none" stroke="#7E7E7E" stroke-width="2" stroke-linecap="round" stroke-linejoin="round"/></g></g><g id="5XBR1Okuy6T"><g><path d="M 1150,325 L 1200,325" fill="none" stroke="#7E7E7E" stroke-width="2" stroke-linecap="round" stroke-linejoin="round"/></g></g><g id="b63tUmlJbra"><g><path d="M 1140,370 L 1200,325" fill="none" stroke="#7E7E7E" stroke-width="2" stroke-linecap="round" stroke-linejoin="round"/></g></g><g id="6AGdzMFaVhl"><g><path d="M 1360,280 L 1300,325" fill="none" stroke="#7E7E7E" stroke-width="2" stroke-linecap="round" stroke-linejoin="round"/></g></g><g id="rBvLvP1D8Il"><g><path d="M 1350,325 L 1300,325" fill="none" stroke="#7E7E7E" stroke-width="2" stroke-linecap="round" stroke-linejoin="round"/></g></g><g id="LC1DVdCeApb"><g><path d="M 1360,370 L 1300,325" fill="none" stroke="#7E7E7E" stroke-width="2" stroke-linecap="round" stroke-linejoin="round"/></g></g><g id="ZXcNqbbMNyi"><g transform="translate(520 550)"><ellipse cx="50" cy="25" rx="50" ry="25" fill="rgb(0,174,181)" stroke="#00aeb5" stroke-width="2" stroke-linecap="round" stroke-linejoin="round" stroke-dasharray="0 0"/></g><g transform="translate(534.5, 565) rotate(0, 35.5, 10)" width="71" height="20"><text text-decoration="underline" x="0" fill="#ffffff" font-size="11pt" font-family="lt_regular"  y="16">Cinema_ID</text><text text-decoration="none" x="71" fill="#4b4b4b" font-size="10pt" font-family="noto_regular"  y="16"></text></g></g><g id="gRupUddaug5"><g transform="translate(280 550)"><ellipse cx="55.00000000000001" cy="25" rx="55.00000000000001" ry="25" fill="rgb(0,174,181)" stroke="#00aeb5" stroke-width="2" stroke-linecap="round" stroke-linejoin="round" stroke-dasharray="0 0"/></g><g transform="translate(291.5, 565) rotate(0, 43.5, 10)" width="87" height="20"><text text-decoration="none" x="0" fill="#ffffff" font-size="11pt" font-family="lt_regular"  y="16">Cinema_Cont</text><text text-decoration="none" x="88" fill="#4b4b4b" font-size="10pt" font-family="noto_regular"  y="16"></text></g></g><g id="lqgaUEoSC8r"><g transform="translate(400 550)"><ellipse cx="56.49999999999999" cy="25" rx="56.49999999999999" ry="25" fill="rgb(0,174,181)" stroke="#00aeb5" stroke-width="2" stroke-linecap="round" stroke-linejoin="round" stroke-dasharray="0 0"/></g><g transform="translate(410, 565) rotate(0, 46.5, 10)" width="93" height="20"><text text-decoration="none" x="0" fill="#ffffff" font-size="11pt" font-family="lt_regular"  y="16">Cinema_Name</text><text text-decoration="none" x="94" fill="#4b4b4b" font-size="10pt" font-family="noto_regular"  y="16"></text></g></g><g id="q1zbvbbsCFV"><g><path d="M 379,560 L 450,500" fill="none" stroke="#7E7E7E" stroke-width="2" stroke-linecap="round" stroke-linejoin="round"/></g></g><g id="5LlQ5bN8E74"><g><path d="M 450,550 L 450,500" fill="none" stroke="#7E7E7E" stroke-width="2" stroke-linecap="round" stroke-linejoin="round"/></g></g><g id="4kGkkoL9vlb"><g><path d="M 530,560 L 450,500" fill="none" stroke="#7E7E7E" stroke-width="2" stroke-linecap="round" stroke-linejoin="round"/></g></g><g id="ttzUTnVsbEy"><g><path d="M 350,350 L 350,465 Q 350,475 360,475 L 400,475" fill="none" stroke="#A8A8A8" stroke-width="2" stroke-linecap="round" stroke-linejoin="round"/><path d="M 400,469.25 L 390,475 L 400,480.75 M 390,469.25 L 390,480.75 Z" fill="none" stroke="#A8A8A8" stroke-width="2" stroke-linecap="round" stroke-linejoin="round"/></g></g><g id="xBvspGksVEk"><g transform="translate(600 450)"><path d="M 100,25 L 50,50 L 0,25 L 50,0 L 100,25 L 100,25 Z" fill="rgb(240,82,84)" stroke="#f05254" stroke-width="2" stroke-linecap="round" stroke-linejoin="round" stroke-dasharray="0 0"/></g><g transform="translate(639, 465) rotate(0, 11, 10)" width="22" height="20"><text text-decoration="none" x="0.5" fill="#ffffff" font-size="11pt" font-family="lt_regular"  y="16">has</text><text text-decoration="none" x="21.5" fill="#4b4b4b" font-size="10pt" font-family="noto_regular"  y="16"></text></g></g><g id="hT219yVDPrW"><g transform="translate(800 450)"><rect x="0" y="0" width="100" height="50" fill="rgb(246,140,39)" stroke="#F68C27" stroke-width="2" stroke-linecap="round" stroke-linejoin="round" stroke-dasharray="0 0"/></g><g transform="translate(819.5, 465) rotate(0, 30.5, 10)" width="61" height="20"><text text-decoration="none" x="0" fill="#ffffff" font-size="11pt" font-family="lt_regular"  y="16">BRANCH</text><text text-decoration="none" x="61" fill="#4b4b4b" font-size="10pt" font-family="noto_regular"  y="16"></text></g></g><g id="wA2PYdUxzpN"><g transform="translate(700 550)"><ellipse cx="50" cy="25" rx="50" ry="25" fill="rgb(0,174,181)" stroke="#00aeb5" stroke-width="2" stroke-linecap="round" stroke-linejoin="round" stroke-dasharray="0 0"/></g><g transform="translate(724, 565) rotate(0, 26, 10)" width="52" height="20"><text text-decoration="underline" x="0" fill="#ffffff" font-size="11pt" font-family="lt_regular"  y="16">Bran_ID</text><text text-decoration="none" x="52" fill="#4b4b4b" font-size="10pt" font-family="noto_regular"  y="16"></text></g></g><g id="IaLli9GJWAd"><g transform="translate(890 550)"><ellipse cx="55.50000000000001" cy="25" rx="55.50000000000001" ry="25" fill="rgb(0,174,181)" stroke="#00aeb5" stroke-width="2" stroke-linecap="round" stroke-linejoin="round" stroke-dasharray="0 0"/></g><g transform="translate(900, 565) rotate(0, 45.5, 10)" width="91" height="20"><text text-decoration="none" x="0" fill="#ffffff" font-size="11pt" font-family="lt_regular"  y="16">Bran_Location</text><text text-decoration="none" x="94" fill="#4b4b4b" font-size="10pt" font-family="noto_regular"  y="16"></text></g></g><g id="28vLh4jaCY3"><g><path d="M 500,475 L 600,475" fill="none" stroke="#A8A8A8" stroke-width="2" stroke-linecap="round" stroke-linejoin="round"/><path d="M 505,480.75 L 505,469.25 Z" fill="none" stroke="#A8A8A8" stroke-width="2" stroke-linecap="round" stroke-linejoin="round"/></g></g><g id="gIbCNZ5DB8I"><g><path d="M 700,475 L 800,475" fill="none" stroke="#7E7E7E" stroke-width="2" stroke-linecap="round" stroke-linejoin="round"/></g></g><g id="5Moh3MChusN"><g transform="translate(800 650)"><rect x="0" y="0" width="100" height="50" fill="rgb(246,140,39)" stroke="#F68C27" stroke-width="2" stroke-linecap="round" stroke-linejoin="round" stroke-dasharray="0 0"/></g><g transform="translate(813.5, 665) rotate(0, 36.5, 10)" width="73" height="20"><text text-decoration="none" x="0" fill="#ffffff" font-size="11pt" font-family="lt_regular"  y="16">MANAGER</text><text text-decoration="none" x="74" fill="#4b4b4b" font-size="10pt" font-family="noto_regular"  y="16"></text></g></g><g id="lCkRCaGDMUk"><g><path d="M 901,560 L 850,500" fill="none" stroke="#7E7E7E" stroke-width="2" stroke-linecap="round" stroke-linejoin="round"/></g></g><g id="a2agxVuRkdc"><g><path d="M 790,560 L 850,500" fill="none" stroke="#7E7E7E" stroke-width="2" stroke-linecap="round" stroke-linejoin="round"/></g></g><g id="JEe5Azl27DD"><g><path d="M 850,500 L 850,650" fill="none" stroke="#7E7E7E" stroke-width="2" stroke-linecap="round" stroke-linejoin="round"/></g></g><g id="OiEBCgmARlG"><g transform="translate(650 650)"><ellipse cx="50" cy="25" rx="50" ry="25" fill="rgb(0,174,181)" stroke="#00aeb5" stroke-width="2" stroke-linecap="round" stroke-linejoin="round" stroke-dasharray="0 0"/></g><g transform="translate(660.5, 665) rotate(0, 39.5, 10)" width="79" height="20"><text text-decoration="underline" x="0" fill="#ffffff" font-size="11pt" font-family="lt_regular"  y="16">Manager_ID</text><text text-decoration="none" x="79" fill="#4b4b4b" font-size="10pt" font-family="noto_regular"  y="16"></text></g></g><g id="nS6Nlg4rIiS"><g transform="translate(610 710)"><ellipse cx="69" cy="25" rx="69" ry="25" fill="rgb(0,174,181)" stroke="#00aeb5" stroke-width="2" stroke-linecap="round" stroke-linejoin="round" stroke-dasharray="0 0"/></g><g transform="translate(625, 725) rotate(0, 54, 10)" width="108" height="20"><text text-decoration="none" x="0" fill="#ffffff" font-size="11pt" font-family="lt_regular"  y="16">Manager_Details</text><text text-decoration="none" x="109" fill="#4b4b4b" font-size="10pt" font-family="noto_regular"  y="16"></text></g></g><g id="BHpUxh6sLgf"><g><path d="M 750,675 L 800,675" fill="none" stroke="#7E7E7E" stroke-width="2" stroke-linecap="round" stroke-linejoin="round"/></g></g><g id="MCHb4YRWwfZ"><g><path d="M 748,735 L 800,675" fill="none" stroke="#7E7E7E" stroke-width="2" stroke-linecap="round" stroke-linejoin="round"/></g></g><g id="bw7Mi4vvDbQ"><g transform="translate(1050 450)"><path d="M 99.99999999999999,25 L 49.99999999999999,50 L 0,25 L 49.99999999999999,0 L 99.99999999999999,25 L 99.99999999999999,25 Z" fill="rgb(240,82,84)" stroke="#f05254" stroke-width="2" stroke-linecap="round" stroke-linejoin="round" stroke-dasharray="0 0"/></g><g transform="translate(1089, 465) rotate(0, 11, 10)" width="22" height="20"><text text-decoration="none" x="0.5" fill="#ffffff" font-size="11pt" font-family="lt_regular"  y="16">has</text><text text-decoration="none" x="21.5" fill="#4b4b4b" font-size="10pt" font-family="noto_regular"  y="16"></text></g></g><g id="k9y01yg4JAi"><g transform="translate(1040 650)"><rect x="0" y="0" width="120" height="50" fill="rgb(246,140,39)" stroke="#F68C27" stroke-width="2" stroke-linecap="round" stroke-linejoin="round" stroke-dasharray="0 0"/></g><g transform="translate(1054.5, 665) rotate(0, 45.5, 10)" width="91" height="20"><text text-decoration="none" x="0" fill="#ffffff" font-size="11pt" font-family="lt_regular"  y="16">payment_type</text><text text-decoration="none" x="92" fill="#4b4b4b" font-size="10pt" font-family="noto_regular"  y="16"></text></g></g><g id="S1vMWmf9nYw"><g transform="translate(1300 450)"><rect x="0" y="0" width="100" height="50" fill="rgb(246,140,39)" stroke="#F68C27" stroke-width="2" stroke-linecap="round" stroke-linejoin="round" stroke-dasharray="0 0"/></g><g transform="translate(1314, 465) rotate(0, 36, 10)" width="72" height="20"><text text-decoration="none" x="0.5" fill="#ffffff" font-size="11pt" font-family="lt_regular"  y="16">transaction</text><text text-decoration="none" x="71.5" fill="#4b4b4b" font-size="10pt" font-family="noto_regular"  y="16"></text></g></g><g id="wngi9jHXNfg"><g><path d="M 1100,500 L 1100,650" fill="none" stroke="#A8A8A8" stroke-width="2" stroke-linecap="round" stroke-linejoin="round"/><path d="M 1105.75,645 L 1094.25,645 Z" fill="none" stroke="#A8A8A8" stroke-width="2" stroke-linecap="round" stroke-linejoin="round"/></g></g><g id="1SSVgfAGtUv"><g><path d="M 1150,475 L 1300,475" fill="none" stroke="#A8A8A8" stroke-width="2" stroke-linecap="round" stroke-linejoin="round"/><path d="M 1295,469.25 L 1295,480.75 Z" fill="none" stroke="#A8A8A8" stroke-width="2" stroke-linecap="round" stroke-linejoin="round"/></g></g><g id="XnAiXO5HJG1"><g><path d="M 1250,350 L 1250,390 Q 1250,400 1260,400 L 1300,400 L 1340,400 Q 1350,400 1350,410 L 1350,450" fill="none" stroke="#A8A8A8" stroke-width="2" stroke-linecap="round" stroke-linejoin="round"/><path d="M 1244.25,355 L 1255.75,355 Z M 1355.75,450 L 1350,440 L 1344.25,450 M 1350,440 Z" fill="none" stroke="#A8A8A8" stroke-width="2" stroke-linecap="round" stroke-linejoin="round"/></g></g><g id="LEq4xFAgj4n"><g transform="translate(1300 610)"><ellipse cx="50" cy="25" rx="50" ry="25" fill="rgb(0,174,181)" stroke="#00aeb5" stroke-width="2" stroke-linecap="round" stroke-linejoin="round" stroke-dasharray="0 0"/></g><g transform="translate(1322.5, 625) rotate(0, 27.5, 10)" width="55" height="20"><text text-decoration="underline" x="0" fill="#ffffff" font-size="11pt" font-family="lt_regular"  y="16">trans_no</text><text text-decoration="none" x="55" fill="#4b4b4b" font-size="10pt" font-family="noto_regular"  y="16"></text></g></g><g id="4xcxOJyigDE"><g transform="translate(1190 490)"><ellipse cx="50" cy="25" rx="50" ry="25" fill="rgb(0,174,181)" stroke="#00aeb5" stroke-width="2" stroke-linecap="round" stroke-linejoin="round" stroke-dasharray="0 0"/></g><g transform="translate(1217.5, 505) rotate(0, 22.5, 10)" width="45" height="20"><text text-decoration="none" x="0" fill="#ffffff" font-size="11pt" font-family="lt_regular"  y="16">cust_id</text><text text-decoration="none" x="45" fill="#4b4b4b" font-size="10pt" font-family="noto_regular"  y="16"></text></g></g><g id="OQEu6DvXm6y"><g transform="translate(1450 440)"><ellipse cx="55.50000000000001" cy="25" rx="55.50000000000001" ry="25" fill="rgb(0,174,181)" stroke="#00aeb5" stroke-width="2" stroke-linecap="round" stroke-linejoin="round" stroke-dasharray="0 0"/></g><g transform="translate(1460, 455) rotate(0, 45.5, 10)" width="91" height="20"><text text-decoration="none" x="0" fill="#ffffff" font-size="11pt" font-family="lt_regular"  y="16">payment_type</text><text text-decoration="none" x="92" fill="#4b4b4b" font-size="10pt" font-family="noto_regular"  y="16"></text></g></g><g id="XBzsyYcEEeg"><g transform="translate(1450 500)"><ellipse cx="56.00000000000001" cy="25" rx="56.00000000000001" ry="25" fill="rgb(0,174,181)" stroke="#00aeb5" stroke-width="2" stroke-linecap="round" stroke-linejoin="round" stroke-dasharray="0 0"/></g><g transform="translate(1460, 515) rotate(0, 46, 10)" width="92" height="20"><text text-decoration="none" x="0" fill="#ffffff" font-size="11pt" font-family="lt_regular"  y="16">total_payment</text><text text-decoration="none" x="93" fill="#4b4b4b" font-size="10pt" font-family="noto_regular"  y="16"></text></g></g><g id="qmkSAAifGcG"><g transform="translate(1450 560)"><ellipse cx="50" cy="25" rx="50" ry="25" fill="rgb(0,174,181)" stroke="#00aeb5" stroke-width="2" stroke-linecap="round" stroke-linejoin="round" stroke-dasharray="0 0"/></g><g transform="translate(1470.5, 575) rotate(0, 29.5, 10)" width="59" height="20"><text text-decoration="none" x="0" fill="#ffffff" font-size="11pt" font-family="lt_regular"  y="16">end_date</text><text text-decoration="none" x="59" fill="#4b4b4b" font-size="10pt" font-family="noto_regular"  y="16"></text></g></g><g id="RlTcMPu4k4n"><g transform="translate(1410 610)"><ellipse cx="50" cy="25" rx="50" ry="25" fill="rgb(0,174,181)" stroke="#00aeb5" stroke-width="2" stroke-linecap="round" stroke-linejoin="round" stroke-dasharray="0 0"/></g><g transform="translate(1427.5, 625) rotate(0, 32.5, 10)" width="65" height="20"><text text-decoration="none" x="1" fill="#ffffff" font-size="11pt" font-family="lt_regular"  y="16">start_date</text><text text-decoration="none" x="64" fill="#4b4b4b" font-size="10pt" font-family="noto_regular"  y="16"></text></g></g><g id="IVblDNz3mD8"><g transform="translate(1190 600)"><ellipse cx="50" cy="-25" rx="50" ry="25" fill="rgb(0,174,181)" stroke="#00aeb5" stroke-width="2" stroke-linecap="round" stroke-linejoin="round" stroke-dasharray="0 0"/></g><g transform="translate(1217.5, 565) rotate(0, 22.5, 10)" width="45" height="20"><text text-decoration="none" x="0" fill="#ffffff" font-size="11pt" font-family="lt_regular"  y="16">Res_ID</text><text text-decoration="none" x="45" fill="#4b4b4b" font-size="10pt" font-family="noto_regular"  y="16"></text></g></g><g id="5e66c3w0Z4o"><g transform="translate(1190 610)"><ellipse cx="50" cy="25" rx="50" ry="25" fill="rgb(0,174,181)" stroke="#00aeb5" stroke-width="2" stroke-linecap="round" stroke-linejoin="round" stroke-dasharray="0 0"/></g><g transform="translate(1206.5, 625) rotate(0, 33.5, 10)" width="67" height="20"><text text-decoration="none" x="0.5" fill="#ffffff" font-size="11pt" font-family="lt_regular"  y="16">trans_date</text><text text-decoration="none" x="66.5" fill="#4b4b4b" font-size="10pt" font-family="noto_regular"  y="16"></text></g></g><g id="flLgOSZXRGF"><g><path d="M 1290,515 L 1350,500" fill="none" stroke="#7E7E7E" stroke-width="2" stroke-linecap="round" stroke-linejoin="round"/></g></g><g id="GsMkP1bcKlc"><g><path d="M 1280,560 L 1350,500" fill="none" stroke="#7E7E7E" stroke-width="2" stroke-linecap="round" stroke-linejoin="round"/></g></g><g id="8sIZsDDqL3S"><g><path d="M 1280,620 L 1350,500" fill="none" stroke="#7E7E7E" stroke-width="2" stroke-linecap="round" stroke-linejoin="round"/></g></g><g id="vXLBoiNpJN3"><g><path d="M 1350,610 L 1350,500" fill="none" stroke="#7E7E7E" stroke-width="2" stroke-linecap="round" stroke-linejoin="round"/></g></g><g id="78dZ6XBkD5J"><g><path d="M 1420,620 L 1350,500" fill="none" stroke="#7E7E7E" stroke-width="2" stroke-linecap="round" stroke-linejoin="round"/></g></g><g id="5mRsli2xCbM"><g><path d="M 1460,570 L 1350,500" fill="none" stroke="#7E7E7E" stroke-width="2" stroke-linecap="round" stroke-linejoin="round"/></g></g><g id="TKrEU0DRfqo"><g><path d="M 1450,525 L 1350,500" fill="none" stroke="#7E7E7E" stroke-width="2" stroke-linecap="round" stroke-linejoin="round"/></g></g><g id="PiOZs3LvtsV"><g><path d="M 1450,465 L 1400,475" fill="none" stroke="#7E7E7E" stroke-width="2" stroke-linecap="round" stroke-linejoin="round"/></g></g></svg>